<?xml version="1.0" encoding="UTF-8"?>
<svg version="1.1" xmlns="http://www.w3.org/2000/svg" width="512" height="512">
<path d="M0 0 C168.96 0 337.92 0 512 0 C512 168.96 512 337.92 512 512 C343.04 512 174.08 512 0 512 C0 343.04 0 174.08 0 0 Z " fill="#ED501F" transform="translate(0,0)"/>
<path d="M0 0 C6.09465354 2.16698793 10.23602727 8.34806563 14.2578125 13.2265625 C15.87265791 15.11825284 15.87265791 15.11825284 18.05859375 17.16796875 C39.74637589 39.47100712 39.74637589 39.47100712 41.25 51.5 C39.22130381 56.43943419 36.07279196 59.70147301 32.33300781 63.46484375 C30.64758621 65.16650256 28.99253206 66.89528056 27.3359375 68.625 C20.48957682 75.69591987 13.51613315 82.03506636 5.59375 87.87109375 C3.25763679 89.6592703 1.30646367 91.41703418 -0.6875 93.5625 C-5.42517686 98.6015558 -11.45461504 102.19819208 -17.1875 106 C-16.6629818 111.77938379 -16.6629818 111.77938379 -13.625 116.5 C-13.0784375 117.08394531 -12.531875 117.66789062 -11.96875 118.26953125 C-9.58689194 120.58348546 -7.1194574 122.76706885 -4.58984375 124.91796875 C-1.55863418 127.54501704 1.37457567 130.26955739 4.3125 133 C7.73184077 136.17257923 11.1509267 139.33262035 14.6875 142.375 C21.23972755 148.05267175 27.51840277 154.03978442 33.8125 160 C34.33263672 160.49000488 34.85277344 160.98000977 35.38867188 161.48486328 C48.52350121 173.9201783 48.52350121 173.9201783 49.8125 182 C49.60636711 185.00954024 48.9168316 185.89801733 46.73046875 188.03515625 C42.99750533 190.80684153 39.09323208 193.22001927 35.125 195.63671875 C29.58265141 199.04295382 24.68145863 202.7089828 19.8125 207 C14.13456925 211.99313975 8.32838187 216.13940796 1.8125 220 C0.65576341 220.71848241 -0.49909458 221.4399956 -1.65234375 222.1640625 C-9.00601821 226.76477124 -14.31998337 230.02612023 -23.1875 229 C-32.23370705 224.85382177 -38.68804951 214.41743876 -44.8046875 206.8515625 C-47.34517889 203.81130232 -49.98965451 200.89976324 -52.6875 198 C-56.98653828 193.37920418 -61.01633337 188.60159936 -64.98046875 183.6875 C-70.7785621 175.90124344 -70.7785621 175.90124344 -78.1875 170 C-78.1875 169.34 -78.1875 168.68 -78.1875 168 C-79.1775 168 -80.1675 168 -81.1875 168 C-81.20811493 168.6072139 -81.22872986 169.2144278 -81.24996948 169.84004211 C-81.46605594 176.15055616 -81.69525397 182.46049645 -81.93212891 188.77026367 C-82.0188408 191.12626154 -82.10219009 193.48238564 -82.18212891 195.83862305 C-82.29750341 199.22222975 -82.42489862 202.60520064 -82.5546875 205.98828125 C-82.60482498 207.57277824 -82.60482498 207.57277824 -82.65597534 209.18928528 C-82.69586578 210.17007553 -82.73575623 211.15086578 -82.77685547 212.16137695 C-82.80794403 213.02519485 -82.83903259 213.88901276 -82.87106323 214.77900696 C-83.1875 217 -83.1875 217 -85.1875 220 C-88.15567921 220.29151155 -90.91482038 220.38841402 -93.88476562 220.35644531 C-94.78583038 220.35848969 -95.68689514 220.36053406 -96.61526489 220.36264038 C-99.60829667 220.3656595 -102.6007832 220.34712653 -105.59375 220.328125 C-107.67443709 220.32506714 -109.75512623 220.32319122 -111.83581543 220.32244873 C-116.20735455 220.31783737 -120.57871032 220.30338777 -124.95019531 220.28125 C-130.53401601 220.25310717 -136.11769137 220.24205298 -141.70157623 220.2375679 C-147.04065261 220.23238736 -152.37969303 220.21784669 -157.71875 220.203125 C-159.23551079 220.20030392 -159.23551079 220.20030392 -160.78291321 220.19742584 C-163.6736832 220.19048748 -166.56434388 220.17681687 -169.45507812 220.16113281 C-170.2949527 220.16001495 -171.13482727 220.15889709 -172.00015259 220.15774536 C-188.14473268 220.04276732 -188.14473268 220.04276732 -190.1875 218 C-191.31291933 210.25958729 -191.45913903 202.5135694 -191.65234375 194.703125 C-191.69046609 193.30571143 -191.7290975 191.90831167 -191.76820374 190.51092529 C-191.93165544 184.63800359 -192.08624816 178.76486042 -192.23706055 172.89160156 C-192.34851422 168.57859635 -192.46666516 164.26581082 -192.58984375 159.953125 C-192.61021383 159.23001003 -192.63058392 158.50689507 -192.65157127 157.76186752 C-192.8915365 149.47697887 -193.27557124 141.22884873 -193.96017456 132.96658325 C-195.73595469 111.47756852 -195.52650598 89.9452683 -195.50317383 68.39794922 C-195.49728643 62.47894376 -195.51458456 56.5602419 -195.5375185 50.64128685 C-195.55219294 46.05349902 -195.55313801 41.46578641 -195.55000877 36.87797928 C-195.55052166 34.69224046 -195.5557532 32.5064974 -195.56582069 30.32078171 C-195.57809217 27.29486119 -195.57145813 24.2695621 -195.55981445 21.24365234 C-195.56745819 20.34622314 -195.57510193 19.44879395 -195.58297729 18.52416992 C-195.57596298 17.70371185 -195.56894867 16.88325378 -195.5617218 16.03793335 C-195.56188954 15.32618139 -195.56205729 14.61442944 -195.56223011 13.88110924 C-195.07415721 11.43103004 -194.09075896 10.56741876 -192.1875 9 C-187.38146856 6.23326933 -182.17490483 6.73359689 -176.79760742 6.77294922 C-175.75324524 6.77265717 -174.70888306 6.77236511 -173.63287354 6.77206421 C-170.18615365 6.77345585 -166.73965081 6.78900948 -163.29296875 6.8046875 C-160.90114968 6.80841821 -158.50932908 6.81126491 -156.11750793 6.81326294 C-149.82597627 6.82089477 -143.53453713 6.84053951 -137.24304199 6.8626709 C-130.82154593 6.88313895 -124.40003491 6.89226672 -117.97851562 6.90234375 C-105.38147097 6.92378573 -92.78449041 6.95753124 -80.1875 7 C-78.30596695 10.49634966 -77.94115562 12.85698825 -77.95703125 16.85546875 C-77.95832031 18.02440674 -77.95960938 19.19334473 -77.9609375 20.39770508 C-77.97382813 21.6483374 -77.98671875 22.89896973 -78 24.1875 C-78.00644531 25.46713623 -78.01289063 26.74677246 -78.01953125 28.06518555 C-78.11681557 40.38761238 -78.57175441 52.6932764 -79.1875 65 C-73.10744567 62.83750645 -69.27186342 59.73038817 -64.6875 55.25 C-64.06230469 54.65445313 -63.43710937 54.05890625 -62.79296875 53.4453125 C-59.71920638 50.50519197 -56.70421841 47.51384691 -53.71875 44.484375 C-50.67508414 41.42529818 -47.4793179 38.59140804 -44.21386719 35.77246094 C-40.82988694 32.81249749 -37.57839178 29.71390255 -34.3125 26.625 C-5.98135588 0 -5.98135588 0 0 0 Z " fill="#FEFEFE" transform="translate(332.1875,103)"/>
<path d="M0 0 C0.33 0 0.66 0 1 0 C1 11.88 1 23.76 1 36 C-10.88 36 -22.76 36 -35 36 C-35 35.67 -35 35.34 -35 35 C-34.29875 34.82984375 -33.5975 34.6596875 -32.875 34.484375 C-22.76159936 31.90106071 -13.42931994 28.50881286 -7.3359375 19.5546875 C-3.71778882 13.29867673 -1.5523858 7.04020577 0 0 Z " fill="#000000" transform="translate(511,476)"/>
<path d="M0 0 C0.33 0 0.66 0 1 0 C1.17015625 0.70125 1.3403125 1.4025 1.515625 2.125 C4.09893929 12.23840064 7.49118714 21.57068006 16.4453125 27.6640625 C22.70132327 31.28221118 28.95979423 33.4476142 36 35 C36 35.33 36 35.66 36 36 C24.12 36 12.24 36 0 36 C0 24.12 0 12.24 0 0 Z " fill="#000000" transform="translate(0,476)"/>
<path d="M0 0 C11.88 0 23.76 0 36 0 C36 11.88 36 23.76 36 36 C35.67 36 35.34 36 35 36 C34.82984375 35.29875 34.6596875 34.5975 34.484375 33.875 C31.90106071 23.76159936 28.50881286 14.42931994 19.5546875 8.3359375 C13.29867673 4.71778882 7.04020577 2.5523858 0 1 C0 0.67 0 0.34 0 0 Z " fill="#000000" transform="translate(476,0)"/>
<path d="M0 0 C11.88 0 23.76 0 36 0 C36 0.33 36 0.66 36 1 C34.948125 1.25523438 34.948125 1.25523438 33.875 1.515625 C23.76159936 4.09893929 14.42931994 7.49118714 8.3359375 16.4453125 C4.71778882 22.70132327 2.5523858 28.95979423 1 36 C0.67 36 0.34 36 0 36 C0 24.12 0 12.24 0 0 Z " fill="#000000" transform="translate(0,0)"/>
</svg>
